# xmcd
#
# Track frame offsets:
#	150
#	11801
#	25595
#	36917
#	52677
#	67861
#
# Disc length: 1140 seconds
#
# Revision: 0
# Processed by: cddbd v1.5.2PL0 Copyright (c) Steve Scherf et al.
# Submitted via: EasyCDDAExtractor 2010.6.0.0
#
DISCID=3c047206
DTITLE=Alibaba - Nad Labem
DYEAR=2009
DGENRE=
TTITLE0=Kdyz byl stvoren Adam
TTITLE1=Az jednou
TTITLE2=Zari
TTITLE3=Vojak z Alama
TTITLE4=Vlani konskych hriv
TTITLE5=Vitkovice Blues
EXTD=
EXTT0=
EXTT1=
EXTT2=
EXTT3=
EXTT4=
EXTT5=
PLAYORDER=
